<?xml version="1.0" encoding="iso-8859-1"?>
<!-- Generator: Adobe Illustrator 17.1.0, SVG Export Plug-In . SVG Version: 6.00 Build 0)  -->
<!DOCTYPE svg PUBLIC "-//W3C//DTD SVG 1.1//EN" "http://www.w3.org/Graphics/SVG/1.1/DTD/svg11.dtd">
<svg version="1.1" id="Capa_1" xmlns="http://www.w3.org/2000/svg" xmlns:xlink="http://www.w3.org/1999/xlink" x="0px" y="0px"
	 viewBox="0 0 188.433 188.433" style="enable-background:new 0 0 188.433 188.433;" xml:space="preserve" fill="#005b96">
<g>
	<path d="M185.957,85.688l-10.582-10.582l7.563-25.388c0.576-1.938-0.043-4.383-1.472-5.811l-1.41-1.41
		c-0.799-0.798-1.83-1.237-2.903-1.237c-1.401,0-2.691,0.751-3.452,2.008l-11.374,18.791l-17.644-17.644l0.684-6.838
		c0.13-1.302-0.404-2.797-1.327-3.718l-1.846-1.846c-0.633-0.634-1.458-0.982-2.324-0.982c-1.166,0-2.219,0.625-2.817,1.671
		l-3.858,6.752C118.606,26.047,99.341,18.44,79.421,18.44C35.628,18.44,0,54.069,0,97.862c0,30.368,17.698,58.486,45.088,71.637
		c0.698,0.335,1.435,0.493,2.161,0.493c1.862,0,3.651-1.046,4.511-2.837c1.195-2.489,0.146-5.477-2.343-6.672
		C25.472,148.988,10,124.408,10,97.862C10,59.583,41.142,28.44,79.421,28.44c17.43,0,34.288,6.664,47.045,18.407l-8.307,4.747
		c-0.909,0.521-1.508,1.395-1.642,2.397s0.215,2.003,0.955,2.743l1.846,1.846c0.817,0.818,2.123,1.347,3.324,1.347
		c0.135,0,0.267-0.007,0.395-0.02l8.203-0.82l17.215,17.215l-19.727,11.94c-1.11,0.673-1.832,1.761-1.98,2.986
		c-0.148,1.225,0.293,2.453,1.211,3.37l1.408,1.408c1.04,1.04,2.682,1.687,4.285,1.687c0.535,0,1.049-0.072,1.527-0.215
		l26.545-7.907L171.9,99.746c1.798,1.798,4.082,2.788,6.431,2.789h0.001c2.377,0,4.725-1.004,6.656-2.861l0.001,0.001l0.129-0.129
		l-0.001-0.001C188.681,95.869,189.968,89.701,185.957,85.688z"/>
	<path d="M66.565,156.742c4.11,1.059,7.895,1.691,12.895,1.87v-36.023c-10,0.152-16.781,1.11-23.683,2.624
		C58.074,138.479,62.017,149.25,66.565,156.742z"/>
	<path d="M57.916,153.937c-3.552-7.527-6.374-16.782-8.232-27.241c-7.165,2.078-12.922,4.783-16.886,7.748
		C39.268,142.966,47.915,149.743,57.916,153.937z"/>
	<path d="M85.459,122.616v35.95c3-0.226,7.636-0.824,11.358-1.768c4.563-7.495,8.501-18.287,10.805-31.587
		C101.043,123.77,93.459,122.832,85.459,122.616z"/>
	<path d="M104.946,154.037c10.068-4.169,18.777-10.947,25.292-19.493c-3.968-3.004-9.768-5.746-17.014-7.848
		C111.359,137.201,108.521,146.492,104.946,154.037z"/>
	<path d="M55.598,70.588c6.969,1.55,13.861,2.532,23.861,2.686V36.368c-5,0.188-9.326,0.889-13.628,2.047
		C61.368,46.18,57.756,57.161,55.598,70.588z"/>
	<path d="M53.279,95.216h26.18v-15.87c-10-0.148-17.384-0.64-24.809-2.25C53.99,82.639,53.372,88.216,53.279,95.216z"/>
	<path d="M54.858,119.112c7.372-1.583,14.602-2.448,24.602-2.594v-16.301H53.285C53.404,107.216,54.091,113.238,54.858,119.112z"/>
	<path d="M57.409,41.263C47.407,45.564,38.783,52.452,32.38,61.089c3.921,3.053,9.727,5.847,17.019,7.991
		C51.162,58.444,53.91,48.993,57.409,41.263z"/>
	<path d="M20.456,95.216h26.752c0.098-7,0.548-13.515,1.311-19.597c-8.004-2.268-14.687-5.118-19.506-8.78
		C24.044,75.148,20.984,84.216,20.456,95.216z"/>
	<path d="M114.177,120.575c7.973,2.238,14.654,5.243,19.499,8.862c5.276-8.56,8.503-17.221,8.996-29.221h-26.975
		C115.571,107.216,115.051,114.157,114.177,120.575z"/>
	<path d="M29.374,129.334c4.833-3.573,11.461-6.543,19.358-8.759c-0.874-6.417-1.394-13.359-1.519-20.359H20.444
		C20.935,112.216,24.136,120.798,29.374,129.334z"/>
	<path d="M85.459,95.216h24.171c-0.092-7-0.313-12.577-0.973-18.12c-7.085,1.536-15.197,2.014-23.197,2.226V95.216z"/>
	<path d="M85.459,116.541c8,0.21,15.959,1.061,22.99,2.571c0.767-5.874,1.057-11.896,1.175-18.896H85.459V116.541z"/>
	<path d="M85.459,36.414v36.833c8-0.219,15.711-1.18,22.358-2.659c-2.165-13.468-5.811-24.474-10.293-32.242
		C93.612,37.31,89.459,36.652,85.459,36.414z"/>
	<path d="M126.915,85.358l12.482-7.611c-1.259-3.579-2.854-6.996-4.743-10.27l-0.871-0.885c-4.811,3.624-11.444,6.78-19.392,9.032
		c0.763,6.082,1.212,12.591,1.311,19.591h8.193c-0.561-2-0.788-2.818-0.622-4.189C123.552,88.727,124.879,86.59,126.915,85.358z"/>
	<path d="M117.293,48.058l0.178-0.102c-3.716-2.699-7.744-4.994-12.025-6.812c3.524,7.752,6.293,17.244,8.065,27.936
		c5.784-1.7,10.615-3.813,14.33-6.136l-3.461,0.347c-0.287,0.028-0.583,0.043-0.887,0.043c-2.653,0-5.54-1.171-7.354-2.983
		l-0.433-0.433c-1.705-1.705-2.504-4.012-2.193-6.33C113.822,51.269,115.201,49.254,117.293,48.058z"/>
</g>
<g>
</g>
<g>
</g>
<g>
</g>
<g>
</g>
<g>
</g>
<g>
</g>
<g>
</g>
<g>
</g>
<g>
</g>
<g>
</g>
<g>
</g>
<g>
</g>
<g>
</g>
<g>
</g>
<g>
</g>
</svg>
